<?xml version="1.0" standalone="no"?>
<!DOCTYPE svg PUBLIC "-//W3C//DTD SVG 20010904//EN"
 "http://www.w3.org/TR/2001/REC-SVG-20010904/DTD/svg10.dtd">
<svg version="1.0" xmlns="http://www.w3.org/2000/svg"
 width="489.000000pt" height="489.000000pt" viewBox="0 0 489.000000 489.000000"
 preserveAspectRatio="xMidYMid meet">
<metadata>
Created by potrace 1.16, written by Peter Selinger 2001-2019
</metadata>
<g transform="translate(0.000000,489.000000) scale(0.100000,-0.100000)"
fill="#000000" stroke="none">
<path d="M2225 4774 c-326 -47 -455 -79 -664 -164 -170 -68 -420 -209 -528
-297 -24 -19 -48 -31 -54 -27 -7 4 -9 3 -6 -3 7 -11 -142 -139 -158 -135 -5 2
-7 0 -3 -4 4 -4 -31 -47 -77 -96 -263 -276 -447 -604 -561 -1001 -96 -334
-110 -714 -39 -1072 71 -356 218 -684 433 -970 41 -55 75 -105 75 -112 0 -7 3
-11 7 -10 3 1 44 -36 91 -82 268 -267 527 -443 828 -563 110 -43 272 -93 336
-103 22 -4 54 -11 70 -16 145 -44 593 -54 815 -19 196 31 259 45 412 96 333
111 652 310 910 567 382 381 618 871 677 1409 22 198 10 498 -28 705 -30 161
-109 399 -190 568 -140 294 -366 585 -613 791 -105 88 -310 224 -433 288 -204
107 -466 192 -715 231 -101 16 -513 29 -585 19z m585 -93 c717 -116 1340 -566
1666 -1203 239 -468 314 -1042 201 -1529 -22 -90 -56 -179 -70 -179 -39 -1
-149 -10 -192 -16 -27 -4 -60 -7 -73 -6 -19 0 -28 -10 -43 -47 -11 -25 -28
-64 -38 -86 -11 -22 -18 -41 -17 -41 0 -1 25 2 55 7 29 4 94 11 145 15 50 3
96 7 101 8 34 4 -38 -178 -136 -344 -359 -606 -1003 -1023 -1701 -1099 -137
-15 -413 -14 -548 3 -439 55 -839 228 -1180 512 -99 82 -261 250 -331 344 -59
80 -119 175 -119 189 0 9 187 31 263 31 26 0 47 3 47 7 0 11 -73 117 -95 136
-15 14 -28 17 -55 12 -19 -4 -82 -11 -140 -15 -126 -9 -121 -12 -187 129 -90
191 -150 397 -178 611 -20 151 -20 471 0 620 108 817 653 1507 1433 1814 174
68 362 115 569 142 151 19 459 11 623 -15z"/>
<path d="M2260 4349 c-645 -71 -1177 -423 -1504 -995 -81 -142 -177 -399 -211
-564 -4 -19 -18 -53 -31 -75 -12 -22 -26 -64 -30 -92 -6 -45 -4 -53 10 -53 21
0 24 -19 30 -195 5 -167 31 -333 76 -488 65 -223 123 -338 324 -637 44 -67
193 -225 278 -298 89 -75 116 -109 78 -99 -35 9 -12 -11 103 -88 239 -159 514
-258 817 -295 89 -11 247 -9 280 3 8 3 69 8 135 12 66 4 134 8 150 10 17 2 55
6 85 10 276 33 646 212 900 438 104 91 180 177 158 177 -8 0 -19 -5 -26 -12
-33 -33 -5 13 52 86 122 157 224 327 284 476 59 148 72 187 102 305 62 241 67
587 14 863 -17 88 -17 93 0 105 17 12 16 16 -3 67 -12 30 -30 62 -40 70 -11 8
-47 70 -81 138 -148 299 -309 508 -540 699 -260 215 -601 369 -928 418 -125
19 -373 26 -482 14z m-214 -118 c-14 -15 -16 -58 -16 -319 0 -166 2 -302 5
-302 3 0 24 9 45 20 l40 20 0 127 0 127 52 53 c28 29 57 67 62 85 18 54 86 48
86 -7 0 -30 -24 -49 -52 -41 -18 4 -33 -5 -70 -41 l-48 -47 0 -118 0 -118 55
27 55 27 0 57 c0 38 -5 61 -15 69 -22 19 -18 47 9 65 48 32 92 -28 51 -69 -9
-9 -15 -33 -15 -61 l0 -46 70 37 70 38 0 173 c0 141 -3 178 -16 198 -29 44 27
90 64 53 17 -17 15 -57 -3 -64 -13 -5 -15 -36 -15 -189 l0 -184 65 -34 65 -35
0 163 c0 135 -3 165 -16 175 -21 19 -14 61 13 71 16 6 29 3 45 -11 23 -19 23
-20 6 -50 -15 -27 -18 -58 -18 -198 l0 -167 59 -31 60 -31 60 61 61 62 0 206
c0 170 -3 208 -15 218 -19 16 -19 54 0 70 19 16 45 9 61 -16 13 -18 12 -24 -6
-47 -19 -23 -20 -40 -20 -233 l0 -208 -61 -62 -62 -62 82 -47 c53 -31 89 -60
104 -83 12 -20 25 -40 29 -46 4 -7 23 4 48 29 l40 39 0 219 c0 204 -1 221 -20
244 -18 23 -19 29 -6 47 16 25 42 32 61 16 19 -16 19 -54 0 -70 -13 -10 -15
-50 -15 -238 l0 -226 -41 -42 c-50 -51 -47 -67 22 -112 l52 -34 58 58 59 58 0
189 c0 173 -2 190 -20 215 -23 31 -19 57 11 73 45 23 83 -48 44 -81 -12 -10
-15 -46 -15 -209 l0 -197 -55 -54 c-30 -30 -55 -59 -55 -65 1 -11 112 -90 124
-88 4 1 38 30 77 64 l69 63 0 69 c0 47 -5 73 -15 83 -19 20 -19 39 1 58 30 31
74 13 74 -30 0 -12 -7 -27 -15 -34 -10 -9 -15 -31 -15 -74 l0 -61 -77 -77 -76
-77 26 -30 c14 -17 31 -46 37 -66 6 -19 16 -35 22 -35 6 0 104 93 219 207 178
176 209 211 207 234 -3 34 18 59 48 59 21 0 44 -25 44 -49 0 -17 -31 -41 -54
-41 -17 0 -83 -61 -239 -220 l-217 -221 14 -32 c30 -70 40 -87 50 -87 6 0 76
65 156 145 l145 145 121 0 c96 0 124 3 134 15 20 24 59 19 72 -10 8 -19 8 -28
-2 -40 -16 -19 -54 -19 -70 0 -10 12 -38 15 -133 15 l-120 0 -149 -147 c-81
-81 -148 -153 -148 -159 0 -35 30 -19 109 60 l86 86 218 0 c181 0 222 3 242
16 30 20 65 4 65 -29 0 -43 -44 -63 -70 -32 -10 13 -49 15 -234 15 l-221 0
-82 -82 c-70 -70 -83 -88 -83 -115 l0 -33 88 0 c48 0 178 -3 289 -7 l202 -6
91 88 c62 61 90 96 90 112 0 27 15 31 23 6 2 -10 8 -27 13 -37 6 -16 4 -18 -9
-13 -13 5 -43 -18 -110 -83 l-92 -89 -293 -1 -293 0 3 -22 3 -23 309 -3 309
-2 58 55 c54 52 62 56 99 53 53 -4 52 -22 -2 -26 -36 -3 -51 -11 -93 -52 l-50
-50 -315 -2 c-291 -3 -315 -4 -318 -20 -3 -17 20 -18 376 -18 325 0 381 2 392
15 26 31 70 11 70 -32 0 -15 -9 -27 -25 -35 -21 -9 -28 -8 -45 7 -19 17 -43
18 -388 16 -202 -1 -369 -5 -372 -8 -3 -3 9 -16 25 -29 29 -23 34 -24 220 -24
l191 0 39 -40 39 -40 170 -2 c229 -4 229 -22 1 -26 l-170 -2 -45 45 -44 45
-163 0 c-90 0 -163 -4 -163 -8 0 -4 6 -14 13 -21 6 -8 7 -11 2 -8 -6 3 -18 -1
-28 -8 -16 -12 -8 -21 87 -96 58 -46 116 -86 128 -90 19 -4 -6 -24 -147 -118
-93 -63 -183 -125 -199 -140 -16 -14 -26 -20 -22 -13 13 23 -11 12 -79 -34
-36 -25 -68 -44 -70 -42 -2 2 37 32 88 66 111 75 378 260 384 266 2 2 -50 44
-115 94 -65 50 -142 111 -172 136 -29 25 -71 58 -93 73 l-39 27 -41 -45 c-23
-24 -77 -88 -120 -142 l-79 -97 21 -55 c12 -31 21 -58 21 -60 0 -2 -12 3 -27
11 -16 7 -44 16 -63 20 -19 3 -57 10 -83 16 -26 6 -50 8 -53 5 -7 -6 50 -132
107 -237 25 -47 72 -136 103 -197 32 -62 64 -113 71 -113 8 0 18 22 25 53 7
28 18 62 26 74 8 12 14 30 14 39 0 33 15 3 45 -89 l30 -92 45 3 c25 2 47 8 48
13 5 13 30 11 34 -2 2 -6 16 -9 32 -7 l27 3 -32 33 c-47 48 -26 53 24 5 l42
-42 140 -3 c126 -3 143 -5 171 -25 17 -12 34 -20 37 -17 3 3 15 1 26 -6 22
-11 30 -63 11 -75 -5 -3 -10 -28 -10 -56 0 -42 -5 -54 -36 -89 -41 -46 -82
-60 -171 -60 -35 0 -63 -4 -63 -9 0 -15 101 -101 119 -101 45 0 57 -63 16 -82
-34 -15 -69 14 -61 53 4 21 -5 35 -52 82 -52 52 -62 57 -101 57 -24 0 -49 -6
-57 -15 -10 -10 -35 -15 -72 -15 l-56 0 59 -60 c32 -32 62 -57 67 -54 4 3 17
0 28 -6 30 -16 27 -67 -5 -82 -34 -15 -69 14 -61 53 4 21 -5 36 -57 87 l-63
62 -67 0 -67 0 0 -99 c0 -77 3 -101 16 -111 9 -8 14 -25 12 -44 -3 -27 -7 -31
-35 -34 -24 -2 -34 2 -43 19 -10 18 -8 26 9 50 18 24 21 42 21 119 0 64 -4 92
-12 94 -7 3 -73 7 -145 10 l-133 6 -27 -31 c-16 -17 -37 -36 -48 -41 -11 -6
-6 3 13 20 17 17 32 36 32 42 0 18 -136 10 -204 -11 -58 -19 -59 -19 -91 1
-18 11 -47 20 -64 20 -26 0 -36 -7 -53 -35 l-21 -36 -23 34 c-22 32 -25 34
-66 27 -24 -4 -51 -11 -60 -15 -9 -4 -41 -1 -70 6 -55 13 -237 21 -275 12
l-22 -5 25 -56 c14 -32 26 -67 26 -80 0 -15 -24 -48 -71 -97 l-72 -74 3 -210
c2 -164 0 -211 -9 -211 -10 0 -13 49 -13 213 l0 212 65 67 c93 96 92 99 -57
177 l-121 64 -34 -36 -33 -37 0 -175 c0 -163 2 -178 21 -204 17 -23 19 -32 10
-50 -14 -25 -53 -28 -71 -6 -13 16 -6 65 10 65 6 0 10 73 10 192 l0 192 27 28
27 28 -135 0 -134 0 -113 -113 c-98 -98 -112 -117 -107 -138 4 -18 0 -30 -14
-43 -19 -18 -22 -18 -46 -2 -40 26 -28 76 20 76 13 0 61 41 130 110 105 106
108 110 80 111 -17 1 -36 1 -43 0 -7 -1 -15 5 -18 14 -5 11 -22 15 -73 15 -55
0 -68 -3 -79 -20 -22 -35 -82 -20 -82 21 0 9 -11 24 -25 33 -66 43 -87 151
-42 216 47 71 60 75 245 78 130 3 171 7 183 18 15 13 17 13 23 -1 4 -13 18
-15 63 -13 l58 3 24 100 c13 55 33 120 44 145 11 25 48 118 84 208 48 123 61
167 53 177 -8 10 -7 13 5 11 11 -1 76 136 239 500 192 430 388 840 415 867 13
13 144 -259 453 -938 110 -242 201 -441 203 -443 1 -1 46 54 99 123 54 68 101
127 106 130 4 3 7 13 5 23 -1 9 0 11 2 5 12 -35 18 -3 15 84 -3 139 -21 388
-28 407 -9 24 -92 80 -211 142 l-108 56 -112 -6 c-65 -4 -113 -3 -113 2 0 12
170 25 205 16 26 -6 26 -6 -14 56 -23 35 -41 71 -41 80 0 9 -31 34 -77 62
-140 82 -240 138 -246 138 -4 0 31 -77 78 -170 47 -94 87 -179 88 -190 2 -11
24 -42 49 -68 41 -43 224 -253 272 -312 l20 -25 -21 20 c-12 11 -89 95 -171
188 -113 126 -159 185 -186 240 -49 101 -99 191 -110 199 -5 3 -11 13 -12 21
-1 8 -20 41 -41 74 -22 32 -52 80 -68 106 l-28 49 -48 -84 c-26 -45 -63 -104
-83 -130 -37 -50 -146 -248 -146 -267 0 -6 -80 -106 -177 -222 -98 -116 -192
-230 -209 -253 -37 -48 -154 -259 -154 -278 0 -6 10 -23 23 -37 30 -33 100
-131 94 -131 -2 0 -30 34 -61 75 -31 41 -58 75 -60 75 -2 0 -23 -41 -47 -90
-23 -50 -44 -88 -46 -86 -2 2 14 44 36 94 23 49 41 94 41 99 0 5 -11 20 -25
33 l-25 24 -30 -22 c-42 -31 -38 -13 4 20 19 15 37 38 39 50 3 13 4 6 4 -15
-1 -26 5 -44 20 -59 l21 -21 48 94 c60 120 106 187 213 313 119 138 261 313
261 320 0 3 -46 6 -102 7 -57 0 -112 4 -123 9 -13 5 27 9 107 9 l128 1 15 35
c14 35 142 265 173 314 18 26 31 33 -218 -109 -112 -63 -116 -67 -170 -148
-43 -65 -69 -91 -120 -125 -168 -111 -240 -173 -240 -205 0 -12 -4 -24 -10
-27 -5 -3 -10 -16 -9 -28 1 -20 2 -20 9 3 10 32 10 -224 0 -265 l-8 -30 -1 37
c0 20 -7 38 -13 40 -10 4 -10 21 1 83 7 43 15 84 18 92 3 7 1 13 -3 13 -5 0
-31 -42 -57 -93 l-48 -92 1 -125 0 -125 -58 -50 c-32 -27 -106 -86 -165 -130
-58 -44 -106 -82 -106 -85 0 -3 57 -45 127 -95 117 -83 243 -181 296 -230 29
-26 13 -16 -47 29 -27 20 -53 36 -58 36 -6 0 -31 14 -56 31 l-45 32 4 -43 4
-42 -252 -247 c-223 -218 -252 -249 -247 -272 5 -27 -21 -64 -38 -53 -15 9
-40 64 -34 74 3 6 16 10 28 10 15 0 97 75 269 247 137 137 248 253 248 258 0
6 -14 19 -31 29 l-30 18 -133 -131 -132 -131 -182 0 c-100 0 -182 2 -182 4 0
2 -3 13 -6 23 -6 15 -4 16 7 6 9 -10 62 -13 188 -13 l174 0 124 122 c67 67
123 126 123 130 0 5 -7 11 -16 15 -11 4 -37 -16 -83 -61 l-67 -66 -244 2
c-184 2 -244 6 -248 16 -3 9 50 12 244 12 l248 0 58 57 c32 32 58 61 58 65 0
4 -20 21 -44 38 l-44 32 -229 -1 c-128 -1 -232 -6 -238 -12 -5 -5 -22 -9 -37
-9 -21 0 -29 6 -34 25 -11 46 36 73 70 40 12 -12 51 -15 223 -15 l208 1 -34
28 -33 27 105 84 c58 46 103 88 101 92 -3 4 -80 8 -171 8 -157 0 -168 -1 -190
-22 -20 -18 -26 -20 -49 -10 -31 15 -30 57 2 79 18 12 24 11 47 -7 23 -18 40
-20 213 -20 l189 0 54 38 55 37 -289 3 -289 2 -48 -47 c-38 -37 -46 -52 -42
-70 8 -29 -11 -53 -41 -53 -53 0 -59 74 -7 86 15 4 53 31 84 60 l57 54 300 0
301 0 0 25 0 25 -123 0 -123 0 -59 60 -59 60 -196 0 c-156 -1 -199 -4 -214
-15 -30 -22 -36 -19 -34 21 1 38 21 55 41 35 7 -7 74 -11 207 -11 l196 0 64
-65 64 -65 118 0 118 0 0 77 0 77 -67 68 -67 68 -313 0 c-202 0 -313 4 -313
10 0 6 1 10 3 10 1 0 140 3 309 7 l307 6 75 -72 74 -73 17 32 17 33 -158 158
-159 159 -182 0 c-110 0 -184 -4 -188 -10 -13 -21 -24 -9 -13 15 l11 25 186 0
186 0 161 -161 162 -162 16 31 c9 17 16 37 16 44 0 7 -83 96 -185 198 l-185
185 0 106 c0 83 -3 109 -15 119 -33 27 -7 75 37 68 18 -2 24 -10 26 -36 2 -22
-2 -34 -12 -38 -13 -5 -16 -25 -16 -108 l0 -101 183 -182 182 -183 36 70 36
69 -95 95 c-52 53 -103 96 -112 96 -9 0 -25 9 -34 19 -23 25 -13 59 20 67 34
9 57 -13 50 -46 -4 -23 8 -39 87 -118 51 -51 96 -92 100 -92 4 0 30 16 58 37
l51 36 -175 176 c-96 97 -194 197 -218 224 -27 29 -51 47 -65 47 -24 0 -54 24
-54 42 0 18 31 48 50 48 25 0 40 -21 40 -55 0 -26 29 -59 219 -249 l218 -218
27 17 c14 10 26 20 26 24 0 3 -63 69 -140 146 l-140 140 0 106 c0 83 -3 109
-15 119 -33 27 -7 75 37 68 18 -2 24 -10 26 -36 2 -22 -2 -34 -12 -38 -13 -5
-16 -25 -16 -108 l0 -101 143 -142 142 -142 25 19 25 19 -67 68 -68 69 0 216
c0 188 -2 220 -17 247 -18 30 -17 31 5 53 17 18 26 20 39 12 34 -21 39 -42 15
-67 -21 -23 -22 -30 -22 -238 l0 -215 69 -68 c69 -68 69 -68 82 -45 9 18 14
105 17 321 l4 297 -66 72 c-37 40 -64 74 -61 77 3 4 36 -24 73 -61 l67 -67 5
-288 5 -287 22 35 c22 34 23 42 23 305 l0 271 -55 54 c-46 46 -68 80 -51 80 2
0 11 3 19 6 11 4 13 -1 10 -18 -3 -17 8 -35 46 -73 l51 -49 0 -263 c0 -145 4
-263 8 -263 29 0 32 29 32 332 0 272 -2 312 -17 334 -14 22 -14 27 -2 35 19
12 32 11 24 -1 -10 -16 5 -12 23 7 16 16 17 15 20 -6 2 -12 -4 -31 -12 -40z
m2272 -2118 c3 -10 -71 -13 -350 -13 -314 1 -351 2 -333 15 16 13 70 15 349
13 253 -2 330 -6 334 -15z m-178 -163 c24 -24 25 -34 4 -54 -20 -20 -48 -20
-64 -1 -11 13 -54 15 -311 13 -237 -2 -300 0 -304 10 -2 7 3 16 11 19 9 3 142
3 297 0 268 -6 281 -5 305 13 31 25 37 25 62 0z m-1285 -715 c-22 -19 -59 -47
-82 -62 -32 -21 -43 -35 -43 -53 0 -17 -15 -41 -45 -70 l-45 -44 0 -182 c0
-149 3 -184 15 -194 19 -16 19 -54 0 -70 -19 -16 -45 -9 -61 16 -13 18 -12 24
6 47 18 23 20 40 20 205 l0 181 44 48 c24 26 42 51 40 55 -4 6 -42 -4 -107
-30 -31 -13 -40 -13 -50 -2 -10 10 -9 11 2 5 11 -6 13 -4 8 9 -4 10 -3 15 3
11 5 -3 51 24 102 61 106 76 160 104 203 104 l30 0 -40 -35z m105 -88 l0 -102
88 -87 c49 -48 99 -88 114 -92 49 -11 47 -86 -3 -86 -26 0 -51 30 -45 54 4 16
-15 42 -89 117 l-95 96 0 95 c0 52 3 98 7 101 18 19 23 -2 23 -96z m-819 -198
c-3 -170 -1 -196 13 -208 9 -7 16 -26 16 -42 0 -22 -6 -30 -25 -35 -15 -4 -32
-1 -40 6 -19 16 -19 54 0 70 12 10 15 47 15 212 0 155 3 199 13 195 9 -3 11
-49 8 -198z m329 -126 c0 -160 2 -189 17 -205 13 -15 14 -23 5 -43 -13 -29
-52 -34 -72 -10 -13 16 -6 65 10 65 6 0 10 72 10 190 0 162 2 190 15 190 13 0
15 -27 15 -187z"/>
<path d="M2377 3193 c-74 -172 -148 -348 -217 -523 -82 -206 -181 -422 -320
-701 -67 -132 -119 -243 -117 -246 6 -6 489 -5 495 1 2 3 -22 58 -54 123 -33
64 -59 120 -60 123 -1 10 -29 66 -51 101 -12 20 -19 40 -16 43 4 3 -2 13 -13
22 -10 8 -13 13 -6 9 15 -8 15 -11 -2 53 -14 51 -13 82 3 82 9 0 12 -6 158
-315 l113 -240 157 0 156 0 128 274 c71 150 131 276 134 279 16 16 17 -17 2
-72 -9 -36 -17 -77 -17 -93 -1 -15 -43 -110 -94 -210 -64 -126 -89 -184 -80
-187 7 -3 45 -2 83 1 l71 6 77 151 c43 83 79 156 81 163 2 7 -5 30 -16 50 -24
48 -57 120 -120 258 -28 61 -75 163 -106 229 -31 65 -53 123 -49 129 3 5 2 7
-4 4 -5 -3 -28 26 -51 66 -60 105 -185 289 -197 290 -5 0 -31 -37 -56 -82 -26
-45 -50 -85 -54 -89 -14 -13 79 158 96 177 9 10 20 37 24 60 4 24 11 39 16 34
4 -4 44 -87 87 -183 91 -202 122 -264 128 -258 2 3 -50 134 -116 292 -66 158
-120 292 -120 297 0 32 -25 -8 -73 -118z m161 -305 c120 -219 177 -327 157
-303 -17 20 -17 19 -10 -5 4 -14 20 -54 36 -89 16 -35 29 -74 29 -86 0 -12 9
-44 21 -70 15 -34 18 -50 10 -58 -8 -8 -11 -7 -11 3 0 7 -42 86 -94 174 -51
89 -127 223 -168 298 l-75 137 -22 -47 c-35 -71 -182 -336 -194 -347 -7 -7 -7
-4 -2 10 4 11 30 85 57 165 27 80 77 198 111 263 33 64 62 117 63 117 1 0 42
-73 92 -162z m-39 -529 c28 -33 51 -65 51 -70 0 -5 -22 -9 -50 -9 l-50 0 0
-76 c0 -44 -4 -74 -10 -72 -20 7 -119 151 -112 164 14 25 103 124 112 124 4 0
31 -27 59 -61z"/>
<path d="M3332 2805 c0 -133 2 -147 21 -172 25 -33 48 -52 62 -53 6 0 8 44 5
122 -5 122 -5 124 -44 186 -21 34 -40 62 -41 62 -1 0 -2 -65 -3 -145z"/>
<path d="M2927 1874 c-42 -81 -75 -150 -72 -152 4 -5 288 -3 293 2 1 2 -30 70
-71 151 l-74 148 -76 -149z"/>
<path d="M1090 1564 c-19 -48 -36 -91 -38 -95 -2 -5 8 -9 21 -9 17 0 28 7 32
20 5 15 15 20 40 20 25 0 35 -5 40 -20 4 -13 15 -20 31 -20 l24 0 -21 53 c-12
28 -28 71 -37 95 -12 30 -22 42 -37 42 -16 0 -27 -18 -55 -86z"/>
<path d="M1447 1639 c-52 -30 -58 -121 -10 -159 61 -48 153 -3 153 75 0 70
-83 119 -143 84z"/>
<path d="M1605 1593 c-3 -32 -8 -75 -10 -95 -5 -35 -3 -38 19 -38 23 0 25 4
28 53 l3 52 19 -52 c11 -29 25 -53 32 -53 7 0 21 24 31 53 16 48 18 49 21 22
5 -60 12 -75 33 -75 19 0 20 4 14 63 -12 120 -14 129 -38 125 -15 -2 -26 -16
-37 -45 -8 -23 -18 -44 -21 -48 -4 -3 -15 17 -25 45 -14 40 -23 50 -40 50 -20
0 -23 -6 -29 -57z"/>
<path d="M2467 1643 c-3 -5 -8 -47 -12 -95 -6 -83 -6 -88 13 -88 21 0 31 23
33 75 0 27 3 24 18 -20 10 -27 24 -50 32 -50 7 0 21 19 29 43 18 49 30 45 30
-10 0 -31 3 -38 20 -38 23 0 25 21 14 129 -6 54 -9 61 -29 61 -18 0 -27 -11
-43 -52 l-20 -53 -11 28 c-6 15 -15 38 -21 52 -9 24 -43 35 -53 18z"/>
<path d="M3320 1554 l0 -97 52 5 c40 4 57 11 75 32 58 67 5 156 -92 156 l-35
0 0 -96z"/>
<path d="M3531 1628 c-5 -13 -20 -52 -35 -87 -31 -78 -32 -81 -5 -81 12 0 23
8 26 20 4 15 14 20 39 20 23 0 37 -6 44 -20 9 -17 50 -29 50 -15 0 3 -16 45
-36 95 -28 70 -40 90 -55 90 -11 0 -23 -10 -28 -22z"/>
<path d="M3679 1621 c-61 -61 -23 -160 61 -161 69 0 112 59 90 124 -22 69
-100 88 -151 37z"/>
<path d="M2180 1601 c0 -11 -6 -21 -12 -24 -10 -3 -10 -9 -1 -28 7 -13 14 -37
15 -54 2 -24 8 -31 31 -33 19 -2 27 1 27 12 0 9 -4 16 -10 16 -16 0 -12 57 4
63 10 4 23 -7 37 -31 22 -38 22 -38 -6 -104 -5 -14 -2 -18 13 -18 15 0 32 21
66 84 25 46 46 87 46 91 0 16 -46 -2 -55 -22 -13 -30 -23 -29 -37 2 -9 19 -19
25 -45 25 -26 0 -33 4 -33 20 0 13 -7 20 -20 20 -13 0 -20 -7 -20 -19z"/>
</g>
</svg>
